<?xml version="1.0" standalone="no"?>
<!DOCTYPE svg PUBLIC "-//W3C//DTD SVG 20010904//EN"
 "http://www.w3.org/TR/2001/REC-SVG-20010904/DTD/svg10.dtd">
<svg version="1.0" xmlns="http://www.w3.org/2000/svg"
 width="700.000000pt" height="700.000000pt" viewBox="0 0 700.000000 700.000000"
 preserveAspectRatio="xMidYMid meet">
<metadata>
Created by potrace 1.11, written by Peter Selinger 2001-2013
</metadata>
<g transform="translate(0.000000,700.000000) scale(0.100000,-0.100000)"
fill="#000000" stroke="none">
<path d="M647 6358 c-9 -5 -12 -343 -12 -1272 0 -1119 2 -1266 15 -1267 19 0
2501 0 2518 0 9 1 12 135 12 636 l0 635 -317 -2 -318 -3 0 -315 0 -316 -635 1
-635 0 -1 636 -2 636 951 1 c522 1 952 4 955 6 7 8 5 616 -2 624 -9 9 -2515 9
-2529 0z"/>
<path d="M3820 6355 c0 -12 0 -2293 0 -2437 l0 -98 318 0 317 0 0 315 c-1 173
2 316 5 316 3 1 146 2 318 3 l312 1 0 -317 c0 -296 1 -318 18 -319 22 -1 570
0 598 0 22 1 22 2 22 274 0 149 1 292 1 317 l1 45 317 0 317 0 0 948 c1 522
-1 952 -4 956 -8 11 -2540 7 -2540 -4z m1908 -946 l-1 -319 -636 0 -636 0 1
318 c1 174 2 318 3 318 0 1 286 2 635 2 l634 0 0 -319z"/>
<path d="M685 3180 l-49 -5 -1 -1263 c0 -832 3 -1266 10 -1270 6 -3 148 -6
318 -7 l307 0 1 25 c0 14 1 157 1 318 l0 292 27 1 c14 0 443 1 954 1 l927 0 0
47 c3 301 1 1854 -2 1857 -7 6 -2433 10 -2493 4z m1860 -953 l0 -317 -637 0
-638 0 0 313 c0 173 2 316 4 318 3 3 290 4 638 4 l633 0 0 -318z"/>
<path d="M3918 3182 l-98 -3 0 -54 c0 -30 0 -273 0 -540 0 -267 0 -528 0 -580
l0 -95 314 0 c242 0 315 3 318 13 2 6 4 146 3 310 -1 196 3 301 10 306 5 4
432 7 948 7 604 -1 941 2 945 9 3 5 6 148 6 317 l1 308 -90 0 c-1589 4 -2279
4 -2357 2z"/>
<path d="M5729 1873 c0 -21 -1 -164 -2 -318 l-2 -280 -948 -1 c-521 -1 -950
-4 -953 -6 -4 -5 -5 -165 -4 -498 l0 -135 1267 0 c698 0 1270 3 1273 6 3 4 5
290 5 636 l-1 628 -317 3 -317 2 -1 -37z"/>
</g>
</svg>
